<mxfile host="65bd71144e">
    <diagram id="52S8A5fsknrC7vzfv0PT" name="20230504">
        <mxGraphModel dx="1753" dy="1270" grid="1" gridSize="10" guides="1" tooltips="1" connect="1" arrows="1" fold="1" page="1" pageScale="1" pageWidth="827" pageHeight="1169" math="0" shadow="0">
            <root>
                <mxCell id="0"/>
                <mxCell id="1" parent="0"/>
                <mxCell id="35" value="Share(環境変数的な概念として infra 層にある)" style="swimlane;startSize=23;" parent="1" vertex="1">
                    <mxGeometry x="1260" y="700" width="370" height="220" as="geometry">
                        <mxRectangle x="16" y="37" width="70" height="23" as="alternateBounds"/>
                    </mxGeometry>
                </mxCell>
                <mxCell id="36" value="&lt;span&gt;GcpSecretValue()&lt;br&gt;依存方向がダメな気がするが&lt;br&gt;ニュアンスは gcpCredentialXXX に&lt;br&gt;含まれているものと考える&lt;br&gt;&lt;/span&gt;" style="rounded=1;whiteSpace=wrap;html=1;fillColor=none;" parent="35" vertex="1">
                    <mxGeometry x="190" y="39" width="170" height="77" as="geometry"/>
                </mxCell>
                <mxCell id="37" value="JsonToStruct()&lt;br&gt;&lt;span&gt;依存方向がダメな気がするが&lt;br&gt;ニュアンスは jsonXXX に&lt;br&gt;含まれているものと考える&lt;br&gt;&lt;/span&gt;" style="rounded=1;whiteSpace=wrap;html=1;fillColor=none;" parent="35" vertex="1">
                    <mxGeometry x="190" y="131.5" width="170" height="77" as="geometry"/>
                </mxCell>
                <mxCell id="54" value="GcpClientBigQuery()&lt;br&gt;&lt;span&gt;依存方向がダメな気がするが&lt;br&gt;ニュアンスは jsonXXX に&lt;br&gt;含まれているものと考える&lt;br&gt;&lt;/span&gt;" style="rounded=1;whiteSpace=wrap;html=1;fillColor=none;" parent="35" vertex="1">
                    <mxGeometry x="10" y="131.5" width="170" height="77" as="geometry"/>
                </mxCell>
                <mxCell id="2" value="Service :&lt;br&gt;&amp;nbsp; info&lt;br&gt;Context :&lt;br&gt;&amp;nbsp; authN" style="shape=note;whiteSpace=wrap;html=1;backgroundOutline=1;darkOpacity=0.05;fillColor=none;align=left;" parent="1" vertex="1">
                    <mxGeometry width="92" height="100" as="geometry"/>
                </mxCell>
                <mxCell id="74" style="edgeStyle=none;html=1;exitX=0.75;exitY=0;exitDx=0;exitDy=0;entryX=0.75;entryY=1;entryDx=0;entryDy=0;startArrow=none;startFill=0;" parent="1" source="3" target="8" edge="1">
                    <mxGeometry relative="1" as="geometry"/>
                </mxCell>
                <mxCell id="3" value="usecase 層" style="swimlane;fillColor=none;" parent="1" vertex="1">
                    <mxGeometry x="890" y="440" width="270" height="170" as="geometry">
                        <mxRectangle x="-40" y="-220" width="100" height="23" as="alternateBounds"/>
                    </mxGeometry>
                </mxCell>
                <mxCell id="45" value="AuthN&lt;br&gt;interface" style="rounded=1;whiteSpace=wrap;html=1;fillColor=none;" parent="3" vertex="1">
                    <mxGeometry x="20" y="95" width="120" height="60" as="geometry"/>
                </mxCell>
                <mxCell id="47" style="edgeStyle=none;html=1;exitX=0;exitY=0.5;exitDx=0;exitDy=0;entryX=1;entryY=0.5;entryDx=0;entryDy=0;dashed=1;" parent="3" source="44" target="45" edge="1">
                    <mxGeometry relative="1" as="geometry"/>
                </mxCell>
                <mxCell id="44" value="authN" style="rounded=1;whiteSpace=wrap;html=1;fillColor=none;" parent="3" vertex="1">
                    <mxGeometry x="175" y="105" width="80" height="40" as="geometry"/>
                </mxCell>
                <mxCell id="7" value="domain 層" style="swimlane;fillColor=none;" parent="1" vertex="1">
                    <mxGeometry x="890" y="670" width="300" height="200" as="geometry">
                        <mxRectangle x="-40" y="-220" width="100" height="23" as="alternateBounds"/>
                    </mxGeometry>
                </mxCell>
                <mxCell id="10" value="TokenRepository&lt;br&gt;interface" style="rounded=1;whiteSpace=wrap;html=1;fillColor=none;" parent="7" vertex="1">
                    <mxGeometry x="30" y="45" width="110" height="50" as="geometry"/>
                </mxCell>
                <mxCell id="11" value="Token" style="rounded=1;whiteSpace=wrap;html=1;fillColor=none;" parent="7" vertex="1">
                    <mxGeometry x="55" y="125" width="60" height="30" as="geometry"/>
                </mxCell>
                <mxCell id="15" style="edgeStyle=none;html=1;exitX=0.5;exitY=1;exitDx=0;exitDy=0;entryX=0.5;entryY=0;entryDx=0;entryDy=0;" parent="7" source="10" target="11" edge="1">
                    <mxGeometry relative="1" as="geometry"/>
                </mxCell>
                <mxCell id="12" value="AccountRepository&lt;br&gt;interface" style="rounded=1;whiteSpace=wrap;html=1;fillColor=none;" parent="7" vertex="1">
                    <mxGeometry x="160" y="45" width="110" height="50" as="geometry"/>
                </mxCell>
                <mxCell id="13" value="Account" style="rounded=1;whiteSpace=wrap;html=1;fillColor=none;" parent="7" vertex="1">
                    <mxGeometry x="185" y="125" width="60" height="30" as="geometry"/>
                </mxCell>
                <mxCell id="14" style="edgeStyle=none;html=1;exitX=0.5;exitY=1;exitDx=0;exitDy=0;entryX=0.5;entryY=0;entryDx=0;entryDy=0;" parent="7" source="12" target="13" edge="1">
                    <mxGeometry relative="1" as="geometry"/>
                </mxCell>
                <mxCell id="73" style="edgeStyle=none;html=1;exitX=0.5;exitY=1;exitDx=0;exitDy=0;entryX=0.5;entryY=0;entryDx=0;entryDy=0;startArrow=none;startFill=0;" parent="1" source="8" target="3" edge="1">
                    <mxGeometry relative="1" as="geometry"/>
                </mxCell>
                <mxCell id="76" style="edgeStyle=none;html=1;exitX=0.75;exitY=0;exitDx=0;exitDy=0;startArrow=none;startFill=0;" parent="1" source="8" edge="1">
                    <mxGeometry relative="1" as="geometry">
                        <mxPoint x="1092.9090909090908" y="170" as="targetPoint"/>
                    </mxGeometry>
                </mxCell>
                <mxCell id="8" value="presen 層" style="swimlane;fillColor=none;startSize=23;" parent="1" vertex="1">
                    <mxGeometry x="890" y="220" width="270" height="170" as="geometry">
                        <mxRectangle x="-40" y="-220" width="100" height="23" as="alternateBounds"/>
                    </mxGeometry>
                </mxCell>
                <mxCell id="60" value="&lt;span&gt;apiController&lt;/span&gt;" style="rounded=1;whiteSpace=wrap;html=1;fillColor=none;" parent="8" vertex="1">
                    <mxGeometry x="12" y="110" width="80" height="40" as="geometry"/>
                </mxCell>
                <mxCell id="9" value="infra 層" style="swimlane;fillColor=none;" parent="1" vertex="1">
                    <mxGeometry x="1220" y="300" width="410" height="290" as="geometry">
                        <mxRectangle x="-40" y="-220" width="100" height="23" as="alternateBounds"/>
                    </mxGeometry>
                </mxCell>
                <mxCell id="19" value="accountJson" style="rounded=1;whiteSpace=wrap;html=1;fillColor=none;" parent="9" vertex="1">
                    <mxGeometry x="210" y="170" width="110" height="50" as="geometry"/>
                </mxCell>
                <mxCell id="20" value="accountDB" style="rounded=1;whiteSpace=wrap;html=1;fillColor=none;" parent="9" vertex="1">
                    <mxGeometry x="280" y="230" width="110" height="50" as="geometry"/>
                </mxCell>
                <mxCell id="21" value="tokenJson" style="rounded=1;whiteSpace=wrap;html=1;fillColor=none;" parent="9" vertex="1">
                    <mxGeometry x="20" y="60" width="110" height="50" as="geometry"/>
                </mxCell>
                <mxCell id="22" value="tokenDB" style="rounded=1;whiteSpace=wrap;html=1;fillColor=none;" parent="9" vertex="1">
                    <mxGeometry x="90" y="120" width="110" height="50" as="geometry"/>
                </mxCell>
                <mxCell id="32" style="edgeStyle=orthogonalEdgeStyle;html=1;exitX=0.5;exitY=1;exitDx=0;exitDy=0;exitPerimeter=0;entryX=0.5;entryY=0;entryDx=0;entryDy=0;startArrow=classic;startFill=1;" parent="1" source="17" target="21" edge="1">
                    <mxGeometry relative="1" as="geometry">
                        <Array as="points">
                            <mxPoint x="1295" y="230"/>
                            <mxPoint x="1295" y="360"/>
                        </Array>
                    </mxGeometry>
                </mxCell>
                <mxCell id="33" style="edgeStyle=orthogonalEdgeStyle;html=1;exitX=0.5;exitY=1;exitDx=0;exitDy=0;exitPerimeter=0;entryX=0.5;entryY=0;entryDx=0;entryDy=0;startArrow=classic;startFill=1;" parent="1" source="17" target="19" edge="1">
                    <mxGeometry relative="1" as="geometry">
                        <Array as="points">
                            <mxPoint x="1295" y="340"/>
                            <mxPoint x="1485" y="340"/>
                        </Array>
                    </mxGeometry>
                </mxCell>
                <mxCell id="17" value="JSON" style="shape=cylinder3;whiteSpace=wrap;html=1;boundedLbl=1;backgroundOutline=1;size=15;fillColor=none;" parent="1" vertex="1">
                    <mxGeometry x="1265" y="150" width="60" height="80" as="geometry"/>
                </mxCell>
                <mxCell id="30" style="edgeStyle=orthogonalEdgeStyle;html=1;exitX=0.5;exitY=1;exitDx=0;exitDy=0;exitPerimeter=0;entryX=0.5;entryY=0;entryDx=0;entryDy=0;startArrow=classic;startFill=1;" parent="1" source="18" target="20" edge="1">
                    <mxGeometry relative="1" as="geometry">
                        <Array as="points">
                            <mxPoint x="1555" y="250"/>
                            <mxPoint x="1555" y="530"/>
                        </Array>
                    </mxGeometry>
                </mxCell>
                <mxCell id="31" style="edgeStyle=orthogonalEdgeStyle;html=1;exitX=0.5;exitY=1;exitDx=0;exitDy=0;exitPerimeter=0;entryX=0.5;entryY=0;entryDx=0;entryDy=0;startArrow=classic;startFill=1;" parent="1" source="18" target="22" edge="1">
                    <mxGeometry relative="1" as="geometry">
                        <Array as="points">
                            <mxPoint x="1555" y="390"/>
                            <mxPoint x="1365" y="390"/>
                        </Array>
                    </mxGeometry>
                </mxCell>
                <mxCell id="18" value="BigQuery" style="shape=cylinder3;whiteSpace=wrap;html=1;boundedLbl=1;backgroundOutline=1;size=15;fillColor=none;" parent="1" vertex="1">
                    <mxGeometry x="1512.5" y="170" width="85" height="80" as="geometry"/>
                </mxCell>
                <mxCell id="23" style="edgeStyle=none;html=1;exitX=0.5;exitY=1;exitDx=0;exitDy=0;entryX=1;entryY=0;entryDx=0;entryDy=0;dashed=1;" parent="1" source="21" target="10" edge="1">
                    <mxGeometry relative="1" as="geometry"/>
                </mxCell>
                <mxCell id="24" style="edgeStyle=none;html=1;exitX=0.5;exitY=1;exitDx=0;exitDy=0;entryX=1;entryY=0;entryDx=0;entryDy=0;dashed=1;" parent="1" source="22" target="10" edge="1">
                    <mxGeometry relative="1" as="geometry"/>
                </mxCell>
                <mxCell id="25" style="edgeStyle=none;html=1;exitX=0.5;exitY=1;exitDx=0;exitDy=0;entryX=1;entryY=0;entryDx=0;entryDy=0;dashed=1;" parent="1" source="19" target="12" edge="1">
                    <mxGeometry relative="1" as="geometry"/>
                </mxCell>
                <mxCell id="26" style="edgeStyle=none;html=1;exitX=0.5;exitY=1;exitDx=0;exitDy=0;entryX=1;entryY=0;entryDx=0;entryDy=0;dashed=1;" parent="1" source="20" target="12" edge="1">
                    <mxGeometry relative="1" as="geometry"/>
                </mxCell>
                <mxCell id="34" value="&lt;span style=&quot;font-size: 12px;&quot;&gt;JsonToStruct()&lt;/span&gt;" style="edgeLabel;html=1;align=center;verticalAlign=middle;resizable=0;points=[];labelBackgroundColor=none;" parent="1" vertex="1" connectable="0">
                    <mxGeometry x="1305" y="280.00352941176465" as="geometry"/>
                </mxCell>
                <mxCell id="48" style="edgeStyle=none;html=1;exitX=0.5;exitY=1;exitDx=0;exitDy=0;entryX=0.25;entryY=0;entryDx=0;entryDy=0;" parent="1" source="44" target="10" edge="1">
                    <mxGeometry relative="1" as="geometry"/>
                </mxCell>
                <mxCell id="49" style="edgeStyle=none;html=1;exitX=0.5;exitY=1;exitDx=0;exitDy=0;entryX=0.25;entryY=0;entryDx=0;entryDy=0;" parent="1" source="44" target="12" edge="1">
                    <mxGeometry relative="1" as="geometry"/>
                </mxCell>
                <mxCell id="56" value="&lt;span style=&quot;font-family: &amp;#34;helvetica&amp;#34;&quot;&gt;GcpClientBigQuery()&lt;/span&gt;" style="text;html=1;align=center;verticalAlign=middle;resizable=0;points=[];autosize=1;strokeColor=none;fillColor=none;" parent="1" vertex="1">
                    <mxGeometry x="1490" y="270" width="130" height="20" as="geometry"/>
                </mxCell>
                <mxCell id="61" style="edgeStyle=none;html=1;entryX=0.5;entryY=0;entryDx=0;entryDy=0;startArrow=classic;startFill=1;" parent="1" source="62" target="60" edge="1">
                    <mxGeometry relative="1" as="geometry">
                        <mxPoint x="874" y="303" as="targetPoint"/>
                        <mxPoint x="890" y="189" as="sourcePoint"/>
                    </mxGeometry>
                </mxCell>
                <mxCell id="62" value="Console" style="shape=umlActor;verticalLabelPosition=bottom;verticalAlign=top;html=1;outlineConnect=0;fillColor=none;" parent="1" vertex="1">
                    <mxGeometry x="927" y="120" width="30" height="60" as="geometry"/>
                </mxCell>
                <mxCell id="63" style="edgeStyle=none;html=1;exitX=0.5;exitY=1;exitDx=0;exitDy=0;entryX=0.5;entryY=0;entryDx=0;entryDy=0;startArrow=none;startFill=0;" parent="1" source="60" target="45" edge="1">
                    <mxGeometry relative="1" as="geometry"/>
                </mxCell>
                <mxCell id="64" value="&lt;span&gt;info&lt;br&gt;(DI Creator)&lt;br&gt;&lt;/span&gt;" style="rounded=1;whiteSpace=wrap;html=1;fillColor=none;" parent="1" vertex="1">
                    <mxGeometry x="430" y="20" width="100" height="40" as="geometry"/>
                </mxCell>
                <mxCell id="77" style="edgeStyle=none;html=1;entryX=0.5;entryY=0;entryDx=0;entryDy=0;startArrow=none;startFill=0;" parent="1" target="8" edge="1">
                    <mxGeometry relative="1" as="geometry">
                        <mxPoint x="1025" y="170" as="sourcePoint"/>
                        <mxPoint x="1010" y="140" as="targetPoint"/>
                    </mxGeometry>
                </mxCell>
                <mxCell id="78" value="dto" style="rounded=1;whiteSpace=wrap;html=1;fillColor=none;" parent="1" vertex="1">
                    <mxGeometry x="1090" y="410" width="34" height="20" as="geometry"/>
                </mxCell>
                <mxCell id="79" value="Request" style="rounded=1;whiteSpace=wrap;html=1;fillColor=none;" parent="1" vertex="1">
                    <mxGeometry x="1023" y="190" width="50" height="20" as="geometry"/>
                </mxCell>
                <mxCell id="81" value="Response" style="rounded=1;whiteSpace=wrap;html=1;fillColor=none;" parent="1" vertex="1">
                    <mxGeometry x="1093" y="190" width="60" height="20" as="geometry"/>
                </mxCell>
                <mxCell id="83" value="param" style="rounded=1;whiteSpace=wrap;html=1;fillColor=none;" parent="1" vertex="1">
                    <mxGeometry x="1023" y="410" width="44" height="20" as="geometry"/>
                </mxCell>
                <mxCell id="84" value="domain 層" style="swimlane;fillColor=none;" parent="1" vertex="1">
                    <mxGeometry x="30" y="620" width="790" height="530" as="geometry">
                        <mxRectangle x="-40" y="-220" width="100" height="23" as="alternateBounds"/>
                    </mxGeometry>
                </mxCell>
                <mxCell id="111" style="edgeStyle=none;html=1;" parent="84" source="91" target="93" edge="1">
                    <mxGeometry relative="1" as="geometry"/>
                </mxCell>
                <mxCell id="112" style="edgeStyle=none;html=1;" parent="84" source="91" target="92" edge="1">
                    <mxGeometry relative="1" as="geometry"/>
                </mxCell>
                <mxCell id="204" style="edgeStyle=none;html=1;" parent="84" source="91" target="187" edge="1">
                    <mxGeometry relative="1" as="geometry">
                        <mxPoint x="220" y="410" as="targetPoint"/>
                    </mxGeometry>
                </mxCell>
                <mxCell id="91" value="User" style="rounded=1;whiteSpace=wrap;html=1;fillColor=none;" parent="84" vertex="1">
                    <mxGeometry x="110" y="150" width="60" height="30" as="geometry"/>
                </mxCell>
                <mxCell id="104" style="edgeStyle=none;html=1;" parent="84" source="92" target="98" edge="1">
                    <mxGeometry relative="1" as="geometry"/>
                </mxCell>
                <mxCell id="92" value="UserID&lt;br&gt;(変更可)" style="rounded=1;whiteSpace=wrap;html=1;fillColor=none;" parent="84" vertex="1">
                    <mxGeometry x="220" y="210" width="60" height="30" as="geometry"/>
                </mxCell>
                <mxCell id="96" value="APIKey" style="rounded=1;whiteSpace=wrap;html=1;fillColor=none;" parent="84" vertex="1">
                    <mxGeometry x="656" y="300" width="60" height="30" as="geometry"/>
                </mxCell>
                <mxCell id="117" style="edgeStyle=none;html=1;" parent="84" source="97" target="91" edge="1">
                    <mxGeometry relative="1" as="geometry"/>
                </mxCell>
                <mxCell id="142" style="edgeStyle=none;html=1;" parent="84" source="97" target="101" edge="1">
                    <mxGeometry relative="1" as="geometry">
                        <mxPoint x="240" y="75" as="targetPoint"/>
                    </mxGeometry>
                </mxCell>
                <mxCell id="97" value="Credential" style="rounded=1;whiteSpace=wrap;html=1;fillColor=none;" parent="84" vertex="1">
                    <mxGeometry x="30" y="100" width="60" height="30" as="geometry"/>
                </mxCell>
                <mxCell id="98" value="ID" style="rounded=1;whiteSpace=wrap;html=1;fillColor=none;" parent="84" vertex="1">
                    <mxGeometry x="340" y="270" width="60" height="30" as="geometry"/>
                </mxCell>
                <mxCell id="121" style="edgeStyle=none;html=1;" parent="84" source="99" target="119" edge="1">
                    <mxGeometry relative="1" as="geometry"/>
                </mxCell>
                <mxCell id="122" style="edgeStyle=none;html=1;" parent="84" source="99" target="96" edge="1">
                    <mxGeometry relative="1" as="geometry"/>
                </mxCell>
                <mxCell id="123" style="edgeStyle=none;html=1;" parent="84" source="99" target="187" edge="1">
                    <mxGeometry relative="1" as="geometry">
                        <mxPoint x="220" y="410" as="targetPoint"/>
                    </mxGeometry>
                </mxCell>
                <mxCell id="147" style="edgeStyle=none;html=1;" parent="84" source="99" target="93" edge="1">
                    <mxGeometry relative="1" as="geometry"/>
                </mxCell>
                <mxCell id="99" value="APIPass" style="rounded=1;whiteSpace=wrap;html=1;fillColor=none;" parent="84" vertex="1">
                    <mxGeometry x="630" y="220" width="60" height="30" as="geometry"/>
                </mxCell>
                <mxCell id="108" style="edgeStyle=none;html=1;" parent="84" source="101" target="102" edge="1">
                    <mxGeometry relative="1" as="geometry"/>
                </mxCell>
                <mxCell id="109" style="edgeStyle=none;html=1;startArrow=none;" parent="84" source="101" target="187" edge="1">
                    <mxGeometry relative="1" as="geometry">
                        <mxPoint x="320" y="370" as="sourcePoint"/>
                        <mxPoint x="220" y="410" as="targetPoint"/>
                    </mxGeometry>
                </mxCell>
                <mxCell id="206" style="edgeStyle=none;html=1;" parent="84" source="101" target="205" edge="1">
                    <mxGeometry relative="1" as="geometry"/>
                </mxCell>
                <mxCell id="101" value="Pass" style="rounded=1;whiteSpace=wrap;html=1;fillColor=none;" parent="84" vertex="1">
                    <mxGeometry x="70" y="240" width="60" height="30" as="geometry"/>
                </mxCell>
                <mxCell id="102" value="Password" style="rounded=1;whiteSpace=wrap;html=1;fillColor=none;" parent="84" vertex="1">
                    <mxGeometry x="30" y="290" width="60" height="30" as="geometry"/>
                </mxCell>
                <mxCell id="105" style="edgeStyle=none;html=1;" parent="84" source="93" target="98" edge="1">
                    <mxGeometry relative="1" as="geometry">
                        <mxPoint x="160" y="450" as="targetPoint"/>
                    </mxGeometry>
                </mxCell>
                <mxCell id="113" value="UserName" style="rounded=1;whiteSpace=wrap;html=1;fillColor=none;" parent="84" vertex="1">
                    <mxGeometry x="330" y="100" width="60" height="30" as="geometry"/>
                </mxCell>
                <mxCell id="120" style="edgeStyle=none;html=1;" parent="84" source="119" target="98" edge="1">
                    <mxGeometry relative="1" as="geometry"/>
                </mxCell>
                <mxCell id="119" value="APIKeyID" style="rounded=1;whiteSpace=wrap;html=1;fillColor=none;" parent="84" vertex="1">
                    <mxGeometry x="510" y="250" width="60" height="30" as="geometry"/>
                </mxCell>
                <mxCell id="137" style="edgeStyle=none;html=1;" parent="84" source="134" target="135" edge="1">
                    <mxGeometry relative="1" as="geometry"/>
                </mxCell>
                <mxCell id="139" style="edgeStyle=none;html=1;" parent="84" source="134" target="93" edge="1">
                    <mxGeometry relative="1" as="geometry"/>
                </mxCell>
                <mxCell id="203" style="edgeStyle=none;html=1;" parent="84" source="134" target="113" edge="1">
                    <mxGeometry relative="1" as="geometry"/>
                </mxCell>
                <mxCell id="134" value="Profile" style="rounded=1;whiteSpace=wrap;html=1;fillColor=none;" parent="84" vertex="1">
                    <mxGeometry x="594" y="100" width="60" height="30" as="geometry"/>
                </mxCell>
                <mxCell id="136" style="edgeStyle=none;html=1;" parent="84" source="135" target="98" edge="1">
                    <mxGeometry relative="1" as="geometry"/>
                </mxCell>
                <mxCell id="135" value="ProfileID" style="rounded=1;whiteSpace=wrap;html=1;fillColor=none;" parent="84" vertex="1">
                    <mxGeometry x="594" y="160" width="60" height="30" as="geometry"/>
                </mxCell>
                <mxCell id="187" value="Date" style="rounded=1;whiteSpace=wrap;html=1;fillColor=none;" parent="84" vertex="1">
                    <mxGeometry x="330" y="400" width="60" height="30" as="geometry"/>
                </mxCell>
                <mxCell id="198" style="edgeStyle=none;html=1;" parent="84" source="190" target="97" edge="1">
                    <mxGeometry relative="1" as="geometry"/>
                </mxCell>
                <mxCell id="190" value="Credential&lt;br&gt;interface" style="rounded=1;whiteSpace=wrap;html=1;fillColor=none;" parent="84" vertex="1">
                    <mxGeometry x="30" y="50" width="60" height="30" as="geometry"/>
                </mxCell>
                <mxCell id="194" style="edgeStyle=none;html=1;" parent="84" source="193" target="99" edge="1">
                    <mxGeometry relative="1" as="geometry"/>
                </mxCell>
                <mxCell id="193" value="APIPass&lt;br&gt;interface" style="rounded=1;whiteSpace=wrap;html=1;fillColor=none;" parent="84" vertex="1">
                    <mxGeometry x="716" y="220" width="60" height="30" as="geometry"/>
                </mxCell>
                <mxCell id="197" style="edgeStyle=none;html=1;" parent="84" source="196" target="134" edge="1">
                    <mxGeometry relative="1" as="geometry"/>
                </mxCell>
                <mxCell id="196" value="Profile&lt;br&gt;interface" style="rounded=1;whiteSpace=wrap;html=1;fillColor=none;" parent="84" vertex="1">
                    <mxGeometry x="594" y="50" width="60" height="30" as="geometry"/>
                </mxCell>
                <mxCell id="93" value="AccountID&lt;br&gt;(変更不可)" style="rounded=1;whiteSpace=wrap;html=1;fillColor=none;" parent="84" vertex="1">
                    <mxGeometry x="330" y="160" width="60" height="30" as="geometry"/>
                </mxCell>
                <mxCell id="207" style="edgeStyle=none;html=1;" parent="84" source="205" target="98" edge="1">
                    <mxGeometry relative="1" as="geometry"/>
                </mxCell>
                <mxCell id="205" value="PassID&lt;br&gt;(変更可)" style="rounded=1;whiteSpace=wrap;html=1;fillColor=none;" parent="84" vertex="1">
                    <mxGeometry x="100" y="320" width="60" height="30" as="geometry"/>
                </mxCell>
                <mxCell id="130" value="usecase 層" style="swimlane;fillColor=none;" parent="1" vertex="1">
                    <mxGeometry x="30" y="400" width="270" height="170" as="geometry">
                        <mxRectangle x="-40" y="-220" width="100" height="23" as="alternateBounds"/>
                    </mxGeometry>
                </mxCell>
                <mxCell id="133" value="authN" style="rounded=1;whiteSpace=wrap;html=1;fillColor=none;" parent="130" vertex="1">
                    <mxGeometry x="175" y="105" width="80" height="40" as="geometry"/>
                </mxCell>
                <mxCell id="192" style="edgeStyle=none;html=1;" parent="1" source="133" target="190" edge="1">
                    <mxGeometry relative="1" as="geometry"/>
                </mxCell>
            </root>
        </mxGraphModel>
    </diagram>
</mxfile>
